<svg xmlns:dc="http://purl.org/dc/elements/1.1/" xmlns:cc="http://creativecommons.org/ns#" xmlns:rdf="http://www.w3.org/1999/02/22-rdf-syntax-ns#" xmlns:svg="http://www.w3.org/2000/svg" xmlns="http://www.w3.org/2000/svg" xmlns:sodipodi="http://sodipodi.sourceforge.net/DTD/sodipodi-0.dtd" xmlns:inkscape="http://www.inkscape.org/namespaces/inkscape" width="212.36082484767996" height="37.27835030463996" version="1.1" inkscape:version="0.92.4 5da689c313, 2019-01-14" sodipodi:docname="dibujo.svg" style=""><rect id="backgroundrect" width="100%" height="100%" x="0" y="0" fill="none" stroke="none" class="" style=""/>
  <defs id="defs94"/>
  <sodipodi:namedview id="base" pagecolor="#ffffff" bordercolor="#666666" borderopacity="1.0" inkscape:pageopacity="0.0" inkscape:pageshadow="2" inkscape:zoom="0.49497475" inkscape:cx="621.8082" inkscape:cy="1101.3685" inkscape:document-units="mm" inkscape:current-layer="layer1" showgrid="false" inkscape:window-width="1366" inkscape:window-height="714" inkscape:window-x="0" inkscape:window-y="24" inkscape:window-maximized="1"/>
  <metadata id="metadata97">
    <rdf:RDF>
      <cc:Work rdf:about="">
        <dc:format>image/svg+xml</dc:format>
        <dc:type rdf:resource="http://purl.org/dc/dcmitype/StillImage"/>
        <dc:title/>
      </cc:Work>
    </rdf:RDF>
  </metadata>
  
<g class="currentLayer" style=""><title>Layer 1</title><g inkscape:label="Capa 1" inkscape:groupmode="layer" id="layer1" class="">
    <path style="stroke-width:0.03527778" inkscape:connector-curvature="0" d="m18.5545477721071,1.491638344306934 c-0.1881140719687939,0.42468292593956014 -0.2351459227168561,1.3212347292466164 -0.14108222122073177,1.9346654736499789 l0.14108222122073177,1.1796755373787888 l0.7995014696466927,-1.0853009593548775 c0.7054244371271133,-0.896553140891076 0.7054244371271133,-1.1796741997947702 0.14108222122073177,-1.9346668112339975 c-0.5643422159063818,-0.802178562867165 -0.6584059174025061,-0.802178562867165 -0.940583690867424,-0.0943799283599854 z" id="path2"/>
    <path style="stroke-width:0.03527778" inkscape:connector-curvature="0" d="m13.616523388123495,2.765687122125615 c0,1.6987303661742208 0.6113740666544437,2.2177878701376916 1.4578940560257434,1.1796741997947702 c0.4232599946856501,-0.5190575039634707 0.4702918454337122,-0.9437404299030303 0.14108222122073177,-1.5099838852944374 c-0.8465199893713002,-1.321236066830635 -1.5989762772464753,-1.1796741997947702 -1.5989762772464753,0.3303096854996683 z" id="path4"/>
    <path style="stroke-width:0.03527778" inkscape:connector-curvature="0" d="m22.222805503057224,1.9163212702464927 c-0.2821777734649181,0.37749563692760485 -0.6113740666544437,1.5099825477104185 -0.7524562878751756,2.548096218053341 c-0.18812740299224853,1.0381136703429221 -0.18812740299224853,1.5571711743063925 0,1.1796755373787888 c0.14108222122073177,-0.37749563692760485 0.7054244371271133,-1.0381136703429221 1.2227481333088874,-1.5099838852944374 c0.7994881386232382,-0.6134307444033623 0.8935518401193623,-0.9437390923190118 0.5173103651583197,-1.7931049441981317 c-0.3762281439375878,-0.8493658518791203 -0.5643422159063818,-0.9437404299030303 -0.9876022105920319,-0.42468292593956014 z" id="path6"/>
    <path style="stroke-width:0.03527778" inkscape:connector-curvature="0" d="m10.324493801110963,3.803800792468535 c0,0.519056166379452 0.3762281439375878,1.4627965962824823 0.8465199893713002,2.0762273406858442 l0.8465199893713002,1.0852996217708588 l0.04705851279497148,-1.6043571257343294 c0.04705851279497148,-1.1324869107828142 -0.2351459227168561,-1.745918992770195 -0.8465199893713002,-2.1234146296977996 c-0.7524562878751756,-0.37749563692760485 -0.8935518401193623,-0.28312105890369427 -0.8935518401193623,0.566244792975426 z" id="path8"/>
    <path style="stroke-width:0.03527778" inkscape:connector-curvature="0" d="m26.455405449913716,3.992548610932338 c-1.175716282560826,0.8493658518791203 -1.4578940560257434,2.1234132921137814 -0.4232599946856501,2.1234132921137814 c0.8935518401193623,0 1.7871036802387237,-1.2268614888067246 1.5989762772464753,-2.1234132921137814 c-0.14108222122073177,-0.6606180334153179 -0.23513259169340134,-0.6606180334153179 -1.175716282560826,0 z" id="path10"/>
    <path style="stroke-width:0.03527778" inkscape:connector-curvature="0" d="m6.091893854254463,6.163149192058075 c0,0.3303096854996683 0.940583690867424,1.4156106448545458 2.1162999734282493,2.453724315197468 c2.3044140453970434,2.1234146296977996 2.633623669610023,2.9255931925649645 1.1757296135842805,3.3974634075164794 c-0.5173236961817744,0.18874781846380237 -0.8465199893713002,0.4718688773674965 -0.705437768150568,0.7078039848432537 c0.3762281439375878,0.6134307444033623 -0.7994881386232382,2.359349737173558 -1.6460081279945373,2.4065370261855126 c-0.3762281439375878,0 -0.2351459227168561,0.18874781846380237 0.3762281439375878,0.42468292593956014 c0.8935518401193623,0.37749563692760485 0.9876022105920319,0.6134307444033623 0.5643422159063818,1.415609307270527 c-0.6113740666544437,1.132488248366833 -2.915788112051487,1.2740487778186798 -3.762308101422787,0.2359351074757577 c-0.705437768150568,-0.8493658518791203 -2.3984777468931675,-0.7549912738552097 -2.680642189334631,0.0943799283599854 c-0.2351459227168561,0.7078039848432537 0.8935518401193623,1.0381136703429221 4.185568096108437,1.1324869107828142 c2.492528117365837,0.0943799283599854 2.633623669610023,0.18874781846380237 2.210363674924374,1.0381136703429221 c-0.3762414749610424,0.6606180334153179 -0.3292096242129804,1.0853009593548775 0.23513259169340134,1.6987317037582397 c0.4232599946856501,0.4718702149515154 0.7524696188986302,1.2740487778186798 0.7524696188986302,1.8402935707941055 c0,0.5662434553914071 0.2351459227168561,1.0381136703429221 0.4702918454337122,1.0381136703429221 c0.2821644424414635,0 0.47027851441025753,0.3303083479156496 0.47027851441025753,0.7078039848432537 c0,0.42468292593956014 0.5643555469298365,0.9437404299030303 1.2227614643323421,1.1796755373787888 c0.9876022105920319,0.37749563692760485 1.175716282560826,0.7549912738552097 1.0346340613400935,1.6043571257343294 c-0.1881140719687939,0.9909263813309673 -0.1410955522441864,1.0853009593548775 0.6113740666544437,0.6134307444033623 c0.6113740666544437,-0.37749563692760485 1.0816659120881562,-0.3303083479156496 1.9752177522075176,0.283122396487713 c0.7054244371271133,0.4718702149515154 1.2697799840569497,0.5662434553914071 1.3638303545296193,0.283122396487713 c0.0939837153553963,-0.283122396487713 0.5173236961817744,-0.3303096854996683 0.9876022105920319,-0.1887491560478211 c0.940583690867424,0.3774969745116234 1.1286977628362185,3.06715505960083 0.2351459227168561,4.435577077859402 c-0.2821644424414635,0.4718702149515154 -0.3762281439375878,1.2268628263907433 -0.1881140719687939,1.6987317037582397 c0.6113740666544437,1.604358463318348 1.410875536301136,-0.09436655251979828 1.410875536301136,-2.9255931925649645 c0.04705851279497148,-2.6896580850892065 0.09411702558994296,-2.7368453741011622 1.4578940560257434,-2.8784059035530087 c0.7994881386232382,-0.0943799283599854 1.5989762772464753,-0.4718702149515154 1.7870903492152692,-0.8493658518791203 c0.2351459227168561,-0.37749563692760485 0.6113740666544437,-0.5662434553914071 0.8465199893713002,-0.42468292593956014 c0.2351459227168561,0.18874781846380237 1.2697799840569497,-0.047189964179992674 2.257395525672436,-0.5190575039634707 c1.3638303545296193,-0.6134307444033623 1.7400584984672072,-0.9909263813309673 1.5989762772464753,-1.6515444147462846 c-0.14108222122073177,-0.519056166379452 -0.04705851279497148,-0.896553140891076 0.2351459227168561,-0.896553140891076 c0.6113740666544437,0 2.1162999734282493,-3.067153722016811 1.8811540507113935,-3.7749590444440844 c-0.09411702558994296,-0.3303083479156496 -0.6113740666544437,-0.18874781846380237 -1.363843685553074,0.42468292593956014 c-0.8935385090959078,0.6606180334153179 -1.3638303545296193,0.802178562867165 -1.7400584984672072,0.42468292593956014 c-0.8465199893713002,-0.8493658518791203 -0.1410955522441864,-1.8402922332100868 0.8935385090959078,-1.2740487778186798 c0.705437768150568,0.37749563692760485 1.1286977628362185,0.2359351074757577 2.1162999734282493,-0.7549912738552097 c0.705437768150568,-0.7078053224272721 1.0346473923635484,-1.415609307270527 0.7995014696466927,-1.7931062817821504 c-0.1881140719687939,-0.28312105890369427 -0.2821777734649181,-1.0853009593548775 -0.1881140719687939,-1.6987317037582397 c0.09411702558994296,-0.802178562867165 -0.04705851279497148,-1.0381136703429221 -0.5643555469298365,-0.8493658518791203 c-0.6113740666544437,0.2359351074757577 -0.7054244371271133,-0.3303083479156496 -0.3762281439375878,-2.1234132921137814 c0.09411702558994296,-0.613432081987381 2.1162999734282493,-1.462797933866501 3.5741940294539933,-1.5099838852944374 c0.940583690867424,-0.047189964179992674 1.4578940560257434,-0.3303096854996683 1.5519577575218677,-0.896553140891076 c0.2351459227168561,-1.132488248366833 -0.9876155416154869,-0.9909263813309673 -3.009851813547611,0.37749563692760485 c-2.1162999734282493,1.415609307270527 -3.2920162559890747,1.5099838852944374 -3.621225880202055,0.18874781846380237 c-0.14108222122073177,-0.519056166379452 -0.705437768150568,-1.0853009593548775 -1.2227481333088874,-1.2268614888067246 c-0.5643422159063818,-0.1415605294518471 -0.9876022105920319,-0.42468292593956014 -0.9876022105920319,-0.6606180334153179 c0,-0.18874781846380237 -0.7524696188986302,-0.7549912738552097 -1.6460214590179922,-1.1796741997947702 c-0.8935385090959078,-0.42468292593956014 -1.6460081279945373,-0.9909277189149861 -1.6460081279945373,-1.2740487778186798 c0,-0.283122396487713 -0.2821777734649181,-0.14156186703586585 -0.6113740666544437,0.37749563692760485 c-0.4702918454337122,0.5662434553914071 -0.8935518401193623,0.7078053224272721 -1.3168118348050117,0.42468292593956014 c-1.0346340613400935,-0.6134307444033623 -4.185568096108437,-0.5190575039634707 -4.185568096108437,0.1415605294518471 c0,0.3303096854996683 -0.3762281439375878,0.6134307444033623 -0.8465199893713002,0.6134307444033623 c-0.4702918454337122,0 -1.1286977628362185,-0.28312105890369427 -1.4578940560257434,-0.6134307444033623 c-0.4702918454337122,-0.4718755652875902 -0.4702918454337122,-0.33031369825172446 -0.09411702558994296,0.7549872611031536 c0.3292096242129804,0.802178562867165 0.3292096242129804,1.2268614888067246 0.04705851279497148,1.0381136703429221 c-0.2351459227168561,-0.14156186703586585 -0.8465199893713002,-0.047189964179992674 -1.3168118348050117,0.18874781846380237 c-0.7054244371271133,0.37749563692760485 -1.1286844318127636,0.2359351074757577 -1.9281859014594556,-0.6134307444033623 c-0.5173103651583197,-0.566244792975426 -0.9876022105920319,-1.4156106448545458 -0.9876022105920319,-1.8402935707941055 c0,-0.42468292593956014 -0.4232599946856501,-0.9909263813309673 -0.8935518401193623,-1.2740487778186798 c-1.175716282560826,-0.6134307444033623 -1.4578940560257434,-0.6134307444033623 -1.4578940560257434,0.047189964179992674 zm11.757229480725526,3.3974634075164794 c0,0.37749563692760485 -0.1410955522441864,0.802178562867165 -0.3292096242129804,0.9437404299030303 c-0.4232599946856501,0.42468292593956014 -1.5989762772464753,-0.6134307444033623 -1.2697799840569497,-1.132488248366833 c0.3762281439375878,-0.6606180334153179 1.59898960826993,-0.519056166379452 1.59898960826993,0.18874781846380237 zm1.7870903492152692,0.18874781846380237 c-0.09411702558994296,0.42468292593956014 -0.3762281439375878,0.8493658518791203 -0.7054244371271133,0.9437404299030303 c-0.3292096242129804,0.1415605294518471 -0.4232599946856501,-0.1415605294518471 -0.2821777734649181,-0.7549926114392285 c0.2821777734649181,-1.1796741997947702 1.2227481333088874,-1.3212347292466164 0.9876022105920319,-0.18874781846380237 zm-4.279631797604561,0.42468292593956014 c0.1410955522441864,0.3774969745116234 0,0.9909277189149861 -0.3291962931895258,1.2740487778186798 c-0.4702918454337122,0.42468292593956014 -0.5173236961817744,0.42468292593956014 -0.2821777734649181,0 c0.1410955522441864,-0.28312105890369427 0.09411702558994296,-0.6606180334153179 -0.1881140719687939,-0.8493658518791203 c-0.6113740666544437,-0.37749563692760485 -0.6113740666544437,-1.1796741997947702 0,-1.1796741997947702 c0.2821777734649181,0 0.6113740666544437,0.3303083479156496 0.7994881386232382,0.7549912738552097 zm6.866223616466523,-0.42468292593956014 c0.4232599946856501,0.3774969745116234 -0.5643422159063818,1.5571711743063925 -1.3168118348050117,1.5571711743063925 c-0.3762281439375878,0 -0.5173103651583197,-0.37749563692760485 -0.3762281439375878,-0.9437404299030303 c0.2351459227168561,-0.9437390923190118 1.0816659120881562,-1.2268614888067246 1.6930399787425996,-0.6134307444033623 zm-8.136003600523471,1.8402935707941055 c0,0.6606180334153179 -0.9876022105920319,0.8965518033070569 -1.5519444264984132,0.3303083479156496 c-0.4232599946856501,-0.42468292593956014 0.6113740666544437,-1.6043571257343294 1.1286844318127636,-1.2740487778186798 c0.2351459227168561,0.1415605294518471 0.4232599946856501,0.5662434553914071 0.4232599946856501,0.9437404299030303 zm9.876075430014133,-0.5190575039634707 c0,0.37749563692760485 -0.1881140719687939,0.7078053224272721 -0.4702918454337122,0.7078053224272721 c-0.2351459227168561,0 -0.6584059174025061,0.42468292593956014 -0.940583690867424,0.9437390923190118 c-0.4232599946856501,0.7549926114392285 -0.3762281439375878,0.8493658518791203 0.2351459227168561,0.6606180334153179 c0.4702918454337122,-0.18874781846380237 0.8465199893713002,0.0943799283599854 1.1286977628362185,0.802178562867165 c0.2351459227168561,0.6134307444033623 0.4702918454337122,0.8493658518791203 0.4702918454337122,0.5190575039634707 c0.04705851279497148,-0.37749563692760485 0.3291962931895258,-0.5662434553914071 0.6584059174025061,-0.42468292593956014 c0.2821644424414635,0.09436655251979828 0.9405703598439693,0 1.4578940560257434,-0.2359351074757577 c0.6584059174025061,-0.37749563692760485 0.7994881386232382,-0.3303083479156496 0.6584059174025061,0.18874781846380237 c-0.1410955522441864,0.3303096854996683 -0.6113740666544437,0.6134307444033623 -1.1286977628362185,0.6134307444033623 c-1.0816659120881562,0 -1.5989762772464753,0.6134307444033623 -1.2697799840569497,1.4627965962824823 c0.1881140719687939,0.4718702149515154 0.4702918454337122,0.5190575039634707 1.0816659120881562,0.18874781846380237 c1.2227481333088874,-0.6606180334153179 1.4108622052776814,-0.6134307444033623 1.4108622052776814,0.42468292593956014 c0,0.8021799004511838 -0.2351459227168561,0.896553140891076 -1.7400718294906616,0.7078053224272721 c-1.1286844318127636,-0.18874781846380237 -1.5519444264984132,-0.0943799283599854 -1.175716282560826,0.1415605294518471 c0.3291962931895258,0.2359351074757577 0.4702918454337122,0.9437404299030303 0.3762281439375878,1.604358463318348 c-0.14108222122073177,0.6134307444033623 -0.2351459227168561,1.3212347292466164 -0.2351459227168561,1.5099838852944374 c-0.04705851279497148,0.23593376989173895 -0.3291962931895258,0.23593376989173895 -0.6113740666544437,0.09436655251979828 c-0.3291962931895258,-0.18874781846380237 -0.1881140719687939,0.047189964179992674 0.3292096242129804,0.4718702149515154 c0.9405703598439693,0.802178562867165 0.8935385090959078,0.802178562867165 -0.3292096242129804,0.6134307444033623 c-0.8465199893713002,-0.1415605294518471 -1.175716282560826,-0.047189964179992674 -1.0346340613400935,0.3303083479156496 c0.2351459227168561,0.613432081987381 -1.2697799840569497,1.7931062817821504 -2.9628199627995495,2.312163785745621 c-0.9876022105920319,0.3303083479156496 -1.0816659120881562,0.18874781846380237 -1.0816659120881562,-1.3684233558425902 c0,-1.6043571257343294 0.0939837153553963,-1.745918992770195 1.1757296135842805,-1.5571711743063925 c0.6113740666544437,0.14156186703586585 1.0346340613400935,0.047189964179992674 0.8935385090959078,-0.18874781846380237 c-0.2821644424414635,-0.42468292593956014 0.9876155416154869,-1.8874795222220422 1.3168118348050117,-1.557169836722374 c0.1881140719687939,0.18874781846380237 0.09411702558994296,-1.604358463318348 -0.1881140719687939,-3.9165209114799495 c-0.04705851279497148,-0.283122396487713 -0.2821777734649181,-0.5662434553914071 -0.5173103651583197,-0.5662434553914071 c-0.2351459227168561,0 -0.2821777734649181,-0.3303096854996683 -0.1410955522441864,-0.7549926114392285 c0.2351459227168561,-0.6606166958312992 0.1881140719687939,-0.7078039848432537 -0.3762281439375878,-0.23593376989173895 c-0.5173236961817744,0.42468292593956014 -0.7994881386232382,0.37749563692760485 -1.363843685553074,-0.14156186703586585 c-0.3762281439375878,-0.37749563692760485 -0.7994881386232382,-0.5662434553914071 -0.9876022105920319,-0.42468292593956014 c-0.14108222122073177,0.18874781846380237 -0.2821777734649181,-0.37749563692760485 -0.2821777734649181,-1.1796741997947702 c0,-1.0381136703429221 0.2351459227168561,-1.5099838852944374 0.705437768150568,-1.5099838852944374 c0.3762281439375878,0 0.6113740666544437,0.283122396487713 0.5173236961817744,0.5662434553914071 c-0.04705851279497148,0.3303096854996683 -0.04705851279497148,0.4718702149515154 0.04705851279497148,0.2359351074757577 c0.3762281439375878,-0.6134307444033623 2.1162999734282493,-0.37749563692760485 1.7870903492152692,0.2359351074757577 c-0.1881140719687939,0.3303096854996683 0.1881140719687939,0.047189964179992674 0.7524696188986302,-0.6606180334153179 c1.2697799840569497,-1.4627965962824823 1.8341221999633313,-1.6515444147462846 1.8341221999633313,-0.6134307444033623 zm-12.227507995135783,0.2359351074757577 c0,0.2359351074757577 -0.09411702558994296,0.4718702149515154 -0.18812740299224853,0.4718702149515154 c-0.14108222122073177,0 -0.3762281439375878,-0.2359351074757577 -0.5173103651583197,-0.4718702149515154 c-0.14108222122073177,-0.283122396487713 -0.04705851279497148,-0.4718702149515154 0.1881140719687939,-0.4718702149515154 c0.2821777734649181,0 0.5173236961817744,0.18874781846380237 0.5173236961817744,0.4718702149515154 zm6.113753997567891,1.6987317037582397 c0,0.896553140891076 -0.1881140719687939,1.5571711743063925 -0.4232599946856501,1.3684220182585718 c-0.2351459227168561,-0.1415605294518471 -0.7524696188986302,0.047189964179992674 -1.1286977628362185,0.42468292593956014 c-0.3762281439375878,0.3774969745116234 -0.7994881386232382,0.566244792975426 -0.9876022105920319,0.42468292593956014 c-0.2821777734649181,-0.28312105890369427 -0.4702918454337122,0.566244792975426 -0.3292096242129804,1.3684233558425902 c0,0.2359351074757577 -0.4232599946856501,0.42468292593956014 -0.9876022105920319,0.42468292593956014 c-0.7994881386232382,0.047189964179992674 -0.8935518401193623,0.09436655251979828 -0.2351459227168561,0.283122396487713 c0.940583690867424,0.23593376989173895 1.0816659120881562,1.8402922332100868 0.2351459227168561,2.1706005811257363 c-0.4232599946856501,0.18874781846380237 -0.3762281439375878,0.283122396487713 0.0939837153553963,0.283122396487713 c1.2227614643323421,0.0943799283599854 2.3044273764204988,1.6987317037582397 1.7871036802387237,2.6896580850892065 c-0.2821777734649181,0.5190575039634707 -0.04705851279497148,0.42468292593956014 0.5173236961817744,-0.28312105890369427 c0.5173103651583197,-0.6606180334153179 0.9876022105920319,-0.896553140891076 0.9876022105920319,-0.566244792975426 c0,0.3303096854996683 0.2351459227168561,0.4718702149515154 0.5173103651583197,0.283122396487713 c0.4232599946856501,-0.2359351074757577 0.4702918454337122,0.42468292593956014 0.3292096242129804,2.359349737173558 c-0.2351459227168561,3.114341011028767 -1.0816659120881562,4.435577077859402 -1.4108622052776814,2.2649751591496465 c-0.1410955522441864,-1.132488248366833 -0.04705851279497148,-1.3684233558425902 0.5173103651583197,-1.2268614888067246 c0.4232599946856501,0.1415605294518471 0.2351459227168561,-0.047189964179992674 -0.4232599946856501,-0.37749563692760485 c-0.6584059174025061,-0.3303096854996683 -1.3168118348050117,-0.7549926114392285 -1.4578940560257434,-0.9909277189149861 c-0.14108222122073177,-0.2359351074757577 -0.705437768150568,0.14156186703586585 -1.2697799840569497,0.8021799004511838 c-1.0816659120881562,1.415609307270527 -1.5049259067738054,1.557169836722374 -1.5049259067738054,0.4718688773674965 c0,-0.42468292593956014 0.4232599946856501,-0.8493658518791203 0.940583690867424,-0.9909263813309673 c0.5173103651583197,-0.1415605294518471 0.7994881386232382,-0.42468292593956014 0.6584059174025061,-0.6606180334153179 c-0.1410955522441864,-0.2359351074757577 -0.4702918454337122,-0.283122396487713 -0.7524696188986302,-0.1415605294518471 c-0.2821777734649181,0.18874781846380237 -0.3762281439375878,0.0943799283599854 -0.1881140719687939,-0.18874781846380237 c0.14108222122073177,-0.283122396487713 0.09411702558994296,-0.6134307444033623 -0.1881140719687939,-0.8021799004511838 c-0.2821777734649181,-0.18874781846380237 -0.3762281439375878,-0.4718688773674965 -0.2351459227168561,-0.7078039848432537 c0.14108222122073177,-0.18874781846380237 -0.14108222122073177,-0.5190575039634707 -0.5643422159063818,-0.6606180334153179 c-0.705437768150568,-0.283122396487713 -0.705437768150568,-0.37749563692760485 -0.1410955522441864,-0.7549926114392285 c0.4702918454337122,-0.3303083479156496 0.5173236961817744,-0.4718688773674965 0.1410955522441864,-0.4718688773674965 c-0.3762414749610424,0 -0.6113740666544437,-0.6134307444033623 -0.6113740666544437,-1.4156106448545458 c0,-0.802178562867165 0.23513259169340134,-1.415609307270527 0.6113740666544437,-1.4627965962824823 c0.4232599946856501,0 0.4232599946856501,-0.0943799283599854 0,-0.28312105890369427 c-0.4232599946856501,-0.14156186703586585 -0.4702918454337122,-0.4718702149515154 -0.1410955522441864,-1.132488248366833 c0.3762414749610424,-0.6606180334153179 0.3292096242129804,-0.896553140891076 -0.0939837153553963,-0.896553140891076 c-0.3292096242129804,0 0.0939837153553963,-0.42468292593956014 0.9405703598439693,-0.9437390923190118 c0.8465199893713002,-0.5190575039634707 1.7871036802387237,-0.8493658518791203 2.0222496029555797,-0.6606180334153179 c0.2351459227168561,0.1415605294518471 0.3762281439375878,0 0.3291962931895258,-0.37749563692760485 c-0.09411702558994296,-0.3303096854996683 0.1410955522441864,-0.566244792975426 0.4702918454337122,-0.5190575039634707 c0.2821777734649181,0.0943799283599854 0.5643422159063818,-0.0943799283599854 0.5643422159063818,-0.3303083479156496 c0,-0.283122396487713 0.3292096242129804,-0.4718702149515154 0.705437768150568,-0.4718702149515154 c0.5173236961817744,0 0.705437768150568,0.5190575039634707 0.705437768150568,1.6987317037582397 zm7.712730274814367,-0.4718702149515154 c0.4232599946856501,1.0853009593548775 0.3762281439375878,1.132488248366833 -0.6584059174025061,1.132488248366833 c-0.5173103651583197,0 -0.9405703598439693,-0.09436655251979828 -0.9405703598439693,-0.18874781846380237 c0,-0.566244792975426 0.6113740666544437,-1.6987317037582397 0.9405703598439693,-1.6987317037582397 c0.1881140719687939,0 0.5173236961817744,0.3303083479156496 0.6584059174025061,0.7549912738552097 zm-13.356205757972003,0.2359351074757577 c0,0.2359351074757577 0.2821777734649181,0.3303096854996683 0.6113740666544437,0.1415605294518471 c0.4232599946856501,-0.23593376989173895 0.4232599946856501,-0.18874781846380237 0,0.283122396487713 c-0.6113740666544437,0.6606180334153179 -2.022236271932125,0.3303096854996683 -2.022236271932125,-0.4718702149515154 c0,-0.2359351074757577 0.3291962931895258,-0.4718688773674965 0.705437768150568,-0.4718688773674965 c0.3762281439375878,0 0.7054244371271133,0.23593376989173895 0.7054244371271133,0.519056166379452 zm-0.7524562878751756,1.7931062817821504 c0.1881140719687939,0.23593376989173895 0.14108222122073177,0.7549912738552097 0,1.1796741997947702 c-0.2351459227168561,0.6134307444033623 -0.4702918454337122,0.6606180334153179 -0.940583690867424,0.2359351074757577 c-0.3291962931895258,-0.283122396487713 -0.8935385090959078,-0.3303096854996683 -1.2227481333088874,-0.14156186703586585 c-0.3291962931895258,0.1887491560478211 -0.1881140719687939,-0.0943799283599854 0.2821777734649181,-0.6606166958312992 c0.9876022105920319,-1.132488248366833 1.5049259067738054,-1.2740487778186798 1.8811540507113935,-0.6134307444033623 zm8.277085821744205,1.9346654736499789 c0.5173103651583197,0.5190575039634707 0.9405703598439693,1.2268628263907433 0.9405703598439693,1.604358463318348 c0,0.9437390923190118 -1.316798503781557,2.1706005811257363 -2.351445896145106,2.1706005811257363 c-1.0346340613400935,0 -2.351432565121651,-1.2268614888067246 -2.351432565121651,-2.1706005811257363 c0,-0.7549926114392285 1.6460081279945373,-2.5480975556373595 2.351432565121651,-2.5480975556373595 c0.2821777734649181,0 0.8935518401193623,0.42468292593956014 1.410875536301136,0.9437390923190118 zm-9.07657396036744,0.566244792975426 c0.3762281439375878,0.6134307444033623 0.6113740666544437,3.3502761185045244 0.2351459227168561,2.97278048157692 c-0.1410955522441864,-0.0943799283599854 -0.5643555469298365,0 -1.0346473923635484,0.23593376989173895 c-0.6583925863790516,0.3774969745116234 -0.7524562878751756,0.2359351074757577 -0.5643422159063818,-0.7078039848432537 c0.09411702558994296,-0.6606180334153179 0.5173236961817744,-1.1796755373787888 0.8465199893713002,-1.1796755373787888 c0.3762281439375878,0 0.6584059174025061,-0.23593376989173895 0.6584059174025061,-0.4718688773674965 c0,-0.283122396487713 -0.4232599946856501,-0.4718702149515154 -0.9876022105920319,-0.4718702149515154 c-0.5173236961817744,0 -0.7995014696466927,-0.2359351074757577 -0.6584059174025061,-0.4718702149515154 c0.3762281439375878,-0.6606180334153179 1.0346340613400935,-0.6134307444033623 1.5049259067738054,0.0943799283599854 zm16.930399787425994,1.6043571257343294 c0.7054244371271133,0.18874781846380237 0.7054244371271133,0.283122396487713 0.14108222122073177,0.6606180334153179 c-1.0346340613400935,0.6606180334153179 -1.3168118348050117,0.5662434553914071 -1.8811540507113935,-0.4718702149515154 c-0.5173236961817744,-0.9437390923190118 -0.5643422159063818,-0.9437390923190118 1.7400718294906616,-0.18874781846380237 zm-15.660619803369046,2.5009102666254046 c0.14108222122073177,0.2359351074757577 -0.1881140719687939,0.5190575039634707 -0.7995014696466927,0.7078053224272721 c-1.6460081279945373,0.42468292593956014 -1.8811540507113935,0.3303083479156496 -1.2697799840569497,-0.42468292593956014 c0.6584059174025061,-0.802178562867165 1.6930399787425996,-0.9437404299030303 2.069281453703642,-0.283122396487713 zm0.7524562878751756,1.8874795222220422 c0,1.321236066830635 -0.7994881386232382,1.6515457523303032 -1.3638303545296193,0.566244792975426 c-0.3762414749610424,-0.6606180334153179 -0.3762414749610424,-0.9909277189149861 0.09411702558994296,-1.132488248366833 c1.0346340613400935,-0.4718702149515154 1.2697799840569497,-0.3303083479156496 1.2697799840569497,0.5662434553914071 zm13.497287979192734,0.3774969745116234 c0.1410955522441864,0.3303083479156496 -0.14108222122073177,0.42468292593956014 -0.7524562878751756,0.28312105890369427 c-0.5643422159063818,-0.1415605294518471 -0.9876022105920319,-0.4718702149515154 -0.9876022105920319,-0.7078039848432537 c0,-0.613432081987381 1.5049125757503512,-0.283122396487713 1.7400584984672072,0.42468292593956014 zm-2.163318493152857,1.6987303661742208 c-0.8465199893713002,0.8493658518791203 -1.7871036802387237,-0.37749563692760485 -0.9876155416154869,-1.3212347292466164 c0.5643555469298365,-0.7078053224272721 0.6584059174025061,-0.7078053224272721 1.0816659120881562,0 c0.2821777734649181,0.519056166379452 0.2351459227168561,0.9909263813309673 -0.09411702558994296,1.3212347292466164 zm-1.6930399787425996,1.6987317037582397 c-0.5643555469298365,0.566244792975426 -1.2227614643323421,-0.8965518033070569 -0.8935518401193623,-1.8874795222220422 c0.3291962931895258,-1.1324869107828142 0.3291962931895258,-1.1324869107828142 0.7054244371271133,0.2359351074757577 c0.2351459227168561,0.802178562867165 0.2821777734649181,1.5099838852944374 0.18812740299224853,1.6515444147462846 zm-6.348899920284748,-0.8493658518791203 c0,1.132488248366833 -1.0816659120881562,0.9909277189149861 -1.3168118348050117,-0.18874781846380237 c-0.09411702558994296,-0.4718688773674965 0.14108222122073177,-0.802178562867165 0.5643422159063818,-0.802178562867165 c0.4702918454337122,0 0.7524696188986302,0.42468292593956014 0.7524696188986302,0.9909263813309673 zm4.4677325385499005,0.047189964179992674 c-0.09411702558994296,1.2740487778186798 -1.6460081279945373,1.604358463318348 -1.6460081279945373,0.37749563692760485 c0,-0.4718688773674965 0.3762281439375878,-0.9909263813309673 0.8465199893713002,-1.0852996217708588 c0.4232599946856501,-0.14156186703586585 0.7994881386232382,-0.2359351074757577 0.8465199893713002,-0.283122396487713 c0,0 0,0.42468292593956014 -0.04705851279497148,0.9909263813309673 z" id="path12"/>
    <path style="stroke-width:0.03527778" inkscape:connector-curvature="0" d="m13.851669310840348,20.743929203454957 c-0.1410955522441864,0.283122396487713 0.04705851279497148,0.3303096854996683 0.4232599946856501,0.18874781846380237 c0.8465199893713002,-0.3303083479156496 0.9876022105920319,-0.6606180334153179 0.3291962931895258,-0.6606180334153179 c-0.2821777734649181,0 -0.6113740666544437,0.1887491560478211 -0.7524562878751756,0.4718702149515154 z" id="path14"/>
    <path style="stroke-width:0.03527778" inkscape:connector-curvature="0" d="m29.37119356196521,6.210336481070031 c-1.8811540507113935,1.0381136703429221 -2.1633318241763115,2.2177892077217103 -0.4702918454337122,1.9346668112339975 c0.6113873976778984,-0.1415605294518471 1.2697799840569497,-0.6606180334153179 1.457907387049198,-1.1796755373787888 c0.3762281439375878,-1.1796741997947702 0.14108222122073177,-1.3684220182585718 -0.9876155416154869,-0.7549912738552097 z" id="path16"/>
    <path style="stroke-width:0.03527778" d="m40.10137433369634,17.956361305780398 v5.426503459190368 h1.457907387049198 h1.5049125757503512 l-0.2821644424414635,-3.208715589052677 l-0.2821777734649181,-3.161528300040722 l0.8935518401193623,1.9818541002459527 c0.705437768150568,1.6043571257343294 1.1286977628362185,2.0290400516738893 2.022236271932125,2.0290400516738893 c0.940583690867424,0 1.3168118348050117,-0.42468292593956014 2.069281453703642,-2.2177878701376916 l0.8935385090959078,-2.170601918709756 l-0.1881140719687939,3.3974634075164794 l-0.1881140719687939,3.4446506965284347 l1.3168118348050117,-0.18874781846380237 l1.3638303545296193,-0.14156186703586585 v-5.190568351714611 v-5.19056968929863 l-1.2697799840569497,-0.1415605294518471 c-1.1286844318127636,-0.1415605294518471 -1.4108622052776814,0.1415605294518471 -2.6336103385865686,2.5952848446493153 l-1.4108622052776814,2.7368453741011622 l-1.3168118348050117,-2.7368453741011622 c-1.1286977628362185,-2.3121624481616023 -1.5049259067738054,-2.6896594226732256 -2.633623669610023,-2.6896594226732256 h-1.3168118348050117 z" id="path18" inkscape:connector-curvature="0"/>
    <path style="stroke-width:0.03527778" d="m52.328895659855576,17.956361305780398 v5.426503459190368 h1.4108622052776814 h1.4108622052776814 v-5.426503459190368 v-5.426504796774387 h-1.4108622052776814 h-1.4108622052776814 z" id="path20" inkscape:connector-curvature="0"/>
    <path style="stroke-width:0.03527778" d="m56.56149560671208,18.003548594792356 v5.426503459190368 l1.316798503781557,-0.1415605294518471 c1.2697799840569497,-0.14156186703586585 1.2697799840569497,-0.1887491560478211 1.2227614643323421,-3.4446506965284347 c0,-1.8402922332100868 0.04705851279497148,-2.97278048157692 0.1881140719687939,-2.5952848446493153 c0.09411702558994296,0.37749563692760485 0.9405703598439693,1.9346668112339975 1.8341221999633313,3.4446506965284347 c1.4108622052776814,2.359349737173558 1.8341221999633313,2.7368453741011622 2.915788112051487,2.5952848446493153 l1.2227614643323421,-0.14156186703586585 v-5.190568351714611 v-5.19056968929863 l-1.363843685553074,-0.1415605294518471 l-1.363843685553074,-0.18874781846380237 l0.2351459227168561,3.4918366479563714 c0.1410955522441864,1.8874795222220422 0.1410955522441864,3.114342348612785 0,2.7368453741011622 c-0.09411702558994296,-0.37749563692760485 -0.9405703598439693,-1.9346654736499789 -1.8341221999633313,-3.4446493589444156 c-1.363843685553074,-2.3121624481616023 -1.8341221999633313,-2.6896594226732256 -3.009851813547611,-2.6896594226732256 h-1.3638303545296193 z" id="path22" inkscape:connector-curvature="0"/>
    <path style="stroke-width:0.03527778" d="m66.90784955113648,17.956361305780398 v5.426503459190368 h1.4108622052776814 h1.4108622052776814 v-5.426503459190368 v-5.426504796774387 h-1.4108622052776814 h-1.4108622052776814 z" id="path24" inkscape:connector-curvature="0"/>
    <path style="stroke-width:0.03527778" d="m71.32856356996176,13.143288590993391 c-0.09411702558994296,0.3303083479156496 -0.14108222122073177,2.7368453741011622 -0.09411702558994296,5.332128881166458 l0.14108222122073177,4.6715121853351596 l1.363843685553074,0.14156186703586585 l1.363843685553074,0.18874781846380237 l-0.2351459227168561,-3.3974634075164794 l-0.2821777734649181,-3.4446506965284347 l0.9876022105920319,2.2177892077217103 c1.2697799840569497,3.019966433004856 2.6806555203580857,3.019966433004856 3.997454024139643,-0.0943799283599854 l0.9876155416154869,-2.2177892077217103 l-0.2821777734649181,3.3974634075164794 l-0.2821777734649181,3.4446506965284347 h1.5049259067738054 h1.4578940560257434 v-5.426498108854294 v-5.426504796774387 h-1.316798503781557 c-1.1286977628362185,0 -1.5049259067738054,0.3774969745116234 -2.633623669610023,2.6896594226732256 l-1.3168118348050117,2.7368453741011622 l-1.3638303545296193,-2.7368453741011622 c-1.1286977628362185,-2.2177892077217103 -1.59898960826993,-2.6896594226732256 -2.5395599681138994,-2.6896594226732256 c-0.6584059174025061,0 -1.3168118348050117,0.283122396487713 -1.4578940560257434,0.613432081987381 z" id="path26" inkscape:connector-curvature="0"/>
    <path style="stroke-width:0.03527778" d="m84.6377374771857,17.578865668852796 c-0.9876022105920319,2.7840313255290985 -1.7400718294906616,5.237755640726567 -1.7400718294906616,5.426503459190368 c0,0.2359351074757577 0.5643555469298365,0.37749563692760485 1.2227481333088874,0.37749563692760485 c0.7995014696466927,0 1.3168118348050117,-0.283122396487713 1.457907387049198,-0.9437390923190118 c0.1881140719687939,-0.7549926114392285 0.6583925863790516,-0.9437404299030303 2.022236271932125,-0.9437404299030303 c1.363843685553074,0 1.8341221999633313,0.18874781846380237 2.022236271932125,0.9437404299030303 c0.18812740299224853,0.7078039848432537 0.6584059174025061,0.9437390923190118 1.7400718294906616,0.9437390923190118 c1.6930399787425996,0 1.7400718294906616,0.4718702149515154 -0.7054244371271133,-6.370243889093399 c-1.410875536301136,-3.9637068629078867 -1.6460214590179922,-4.246829259395599 -2.9158014430749417,-4.388389788847446 c-1.3638303545296193,-0.1415605294518471 -1.4108622052776814,-0.0943799283599854 -3.103902184020281,4.954634581822872 zm3.7152762506747243,1.415609307270527 c-0.09411702558994296,0.1415605294518471 -0.5173103651583197,0.1415605294518471 -0.8465199893713002,0.047189964179992674 c-0.5643422159063818,-0.0943799283599854 -0.6113740666544437,-0.4718702149515154 -0.23513259169340134,-1.7931062817821504 l0.47027851441025753,-1.6515444147462846 l0.4232599946856501,1.6043571257343294 c0.2351459227168561,0.8493658518791203 0.3292096242129804,1.6515457523303032 0.1881140719687939,1.7931062817821504 z" id="path28" inkscape:connector-curvature="0"/>
    <path style="stroke-width:0.03527778" d="m93.71431143755315,17.909174016768443 v5.4736907482023245 h3.2920295870125296 c3.1979525544929506,0 3.2920162559890747,-0.047189964179992674 3.2920162559890747,-1.1796741997947702 c0,-1.0381136703429221 -0.1881140719687939,-1.1796755373787888 -1.8811540507113935,-1.1796755373787888 h-1.8341221999633313 l-0.1410955522441864,-4.1524546813716885 c-0.14108222122073177,-4.105268729943752 -0.14108222122073177,-4.105268729943752 -1.4108622052776814,-4.246829259395599 l-1.3168118348050117,-0.1415605294518471 z" id="path30" inkscape:connector-curvature="0"/>
    <path style="stroke-width:0.03527778" d="m101.70921948583242,17.956361305780398 v5.4736907482023245 l1.31680650239563,-0.1415605294518471 l1.2697799840569497,-0.14156186703586585 v-5.190568351714611 v-5.19056968929863 l-1.2697799840569497,-0.1415605294518471 l-1.31680650239563,-0.1415605294518471 z" id="path32" inkscape:connector-curvature="0"/>
    <path style="stroke-width:0.03527778" d="m107.35268963658069,13.143288590993391 c-2.774705890830755,1.415609307270527 -2.069281453703642,5.096193773690701 1.0346340613400935,5.7568118071060175 c3.0568703332722187,0.6134307444033623 3.2920162559890747,0.7549926114392285 2.680642189334631,1.4627965962824823 c-0.705437768150568,0.8493658518791203 -2.022236271932125,0.8493658518791203 -2.727674040082693,0 c-0.5643422159063818,-0.6606166958312992 -2.210363674924374,-0.519056166379452 -2.680642189334631,0.283122396487713 c-0.4702918454337122,0.7078053224272721 1.2697799840569497,2.2177892077217103 2.915788112051487,2.5480975556373595 c2.9628199627995495,0.5662434553914071 5.831576224102974,-1.0853009593548775 5.831576224102974,-3.3502761185045244 c0,-1.2268614888067246 -2.163318493152857,-3.06715505960083 -3.6682443999266625,-3.06715505960083 c-1.410875536301136,0 -2.727674040082693,-0.9909263813309673 -2.1162999734282493,-1.557169836722374 c0.5173103651583197,-0.566244792975426 1.8811540507113935,-0.3774969745116234 2.492528117365837,0.3303083479156496 c0.4232599946856501,0.5662434553914071 0.7994881386232382,0.6134307444033623 1.6930399787425996,0.18874781846380237 c1.2227481333088874,-0.5662434553914071 1.3168118348050117,-0.802178562867165 0.7524562878751756,-1.6043571257343294 c-1.0346340613400935,-1.5571711743063925 -4.138536245360374,-2.029041389257908 -6.207804368040562,-0.9909263813309673 z" id="path34" inkscape:connector-curvature="0"/>
    <path style="stroke-width:0.03527778" d="m114.87730583942626,13.709532046384801 c0,0.9909263813309673 0.2351459227168561,1.1796741997947702 1.4108622052776814,1.1796741997947702 h1.410875536301136 v4.246829259395599 v4.246829259395599 h1.4108622052776814 h1.4108622052776814 v-4.246829259395599 v-4.246829259395599 h1.410875536301136 c1.175716282560826,0 1.4108622052776814,-0.18874781846380237 1.4108622052776814,-1.1796741997947702 c0,-1.1796755373787888 -0.04705851279497148,-1.1796755373787888 -4.2325999468564985,-1.1796755373787888 c-4.185568096108437,0 -4.2325999468564985,0 -4.2325999468564985,1.1796755373787888 z" id="path36" inkscape:connector-curvature="0"/>
    <path style="stroke-width:0.03527778" inkscape:connector-curvature="0" d="m3.7404479581093577,8.8528086147313 c0,0.802178562867165 1.2227614643323421,1.8874795222220422 2.351445896145106,2.1706005811257363 c0.6584059174025061,0.14156186703586585 0.8935518401193623,0.14156186703586585 0.6113740666544437,0 c-0.3291962931895258,-0.1415605294518471 -0.6113740666544437,-0.6606180334153179 -0.6113740666544437,-1.1324869107828142 c0,-0.4718702149515154 -0.3291962931895258,-0.9909277189149861 -0.7524562878751756,-1.132488248366833 c-1.0346340613400935,-0.37749563692760485 -1.59898960826993,-0.37749563692760485 -1.59898960826993,0.0943799283599854 z" id="path38"/>
    <path style="stroke-width:0.03527778" inkscape:connector-curvature="0" d="m1.8592939073979635,13.477133511054506 c0,0.7078039848432537 1.7400718294906616,1.557169836722374 3.0568836642956736,1.557169836722374 c0.7994881386232382,-0.047189964179992674 1.0346340613400935,-0.1415605294518471 0.6113740666544437,-0.28312105890369427 c-0.4702918454337122,-0.0943799283599854 -0.8465199893713002,-0.5190575039634707 -0.8465199893713002,-0.896553140891076 c0,-0.42468292593956014 -0.5173236961817744,-0.6606180334153179 -1.4108622052776814,-0.6606180334153179 c-0.7524696188986302,0 -1.410875536301136,0.1415605294518471 -1.410875536301136,0.283122396487713 z" id="path40"/>
    <path style="stroke-width:0.03527778" inkscape:connector-curvature="0" d="m31.628589087637643,14.043376966445912 c-0.3762414749610424,0.2359351074757577 -0.1410955522441864,0.5190575039634707 0.6113740666544437,0.896553140891076 c0.9405703598439693,0.42468292593956014 1.316798503781557,0.37749563692760485 2.2103503439009193,-0.37749563692760485 l1.0346340613400935,-0.8493658518791203 l-1.6460081279945373,-0.047189964179992674 c-0.8935518401193623,0 -1.8811540507113935,0.18874781846380237 -2.2103503439009193,0.37749563692760485 z" id="path42"/>
    <path style="stroke-width:0.03527778" inkscape:connector-curvature="0" d="m32.19293130354402,18.3845794662814 c-0.7524696188986302,0.3303096854996683 -0.7994881386232382,0.42468292593956014 -0.14108222122073177,0.42468292593956014 c0.4232599946856501,0.047189964179992674 0.8465199893713002,0.283122396487713 0.9405703598439693,0.613432081987381 c0.14108222122073177,0.3303083479156496 0.6584059174025061,0.42468292593956014 1.59898960826993,0.18874781846380237 c1.316798503781557,-0.3303096854996683 1.316798503781557,-0.3774969745116234 0.47027851441025753,-1.0381136703429221 c-1.0346340613400935,-0.7549926114392285 -1.5049259067738054,-0.7549926114392285 -2.868756261303425,-0.1887491560478211 z" id="path44"/>
    <path style="stroke-width:0.03527778" inkscape:connector-curvature="0" d="m2.1885035316109414,21.546107766322123 c-1.0346340613400935,1.0381150079269406 0.6584059174025061,1.745918992770195 2.3044140453970434,0.9909277189149861 c1.0816659120881562,-0.5190575039634707 1.1286844318127636,-0.6134307444033623 0.3291962931895258,-0.896553140891076 c-1.1286844318127636,-0.4718702149515154 -2.257382194648981,-0.5190575039634707 -2.6336103385865686,-0.0943799283599854 z" id="path46"/>
    <path style="stroke-width:0.03527778" inkscape:connector-curvature="0" d="m31.95778538082716,22.11235255929755 c0,0.7549912738552097 1.2697799840569497,1.4627965962824823 2.0692681226801874,1.1796741997947702 c0.6113740666544437,-0.2359351074757577 0.6584059174025061,-0.42468292593956014 0.2351459227168561,-0.9437390923190118 c-0.6113740666544437,-0.7078053224272721 -2.3044140453970434,-0.896553140891076 -2.3044140453970434,-0.2359351074757577 z" id="path48"/>
    <path style="stroke-width:0.03527778" d="m128.78441614166235,17.267894773095595 v5.426504796774387 h1.410875536301136 c1.316798503781557,0 1.4108622052776814,-0.0943799283599854 1.4108622052776814,-1.887480859806061 V18.91943918784188 h1.8811540507113935 c1.6930399787425996,0 1.8811540507113935,-0.1415605294518471 1.8811540507113935,-1.1324869107828142 c0,-0.9909277189149861 -0.2351459227168561,-1.1796755373787888 -1.7400718294906616,-1.321236066830635 c-1.4108622052776814,-0.0943799283599854 -1.7870903492152692,-0.3303083479156496 -1.7870903492152692,-1.0853009593548775 c0,-0.802178562867165 0.3762281439375878,-0.9437390923190118 2.257382194648981,-1.0852996217708588 c2.0222496029555797,-0.14156186703586585 2.257395525672436,-0.2359351074757577 2.1162999734282493,-1.1796768749628073 c-0.14108222122073177,-0.9437404299030303 -0.4232599946856501,-1.0381136703429221 -3.762308101422787,-1.1796755373787888 l-3.668257730950118,-0.1415605294518471 z" id="path50" inkscape:connector-curvature="0"/>
    <path style="stroke-width:0.03527778" d="m137.24961603537534,15.993845995276914 c0,5.4736907482023245 0.6584059174025061,6.46461846711731 4.2325999468564985,6.46461846711731 c3.5741940294539933,0 4.2325999468564985,-0.9909277189149861 4.2325999468564985,-6.46461846711731 v-4.199643307967663 l-1.2697799840569497,0.1415605294518471 c-1.316798503781557,0.14156186703586585 -1.316798503781557,0.18874781846380237 -1.4578940560257434,4.01089548950386 c-0.14108222122073177,3.9165209114799495 -0.5643422159063818,4.7186994743471145 -2.2103503439009193,4.105268729943752 c-0.4702918454337122,-0.18874781846380237 -0.705437768150568,-1.2740487778186798 -0.7995014696466927,-4.105268729943752 c-0.14108222122073177,-3.8221476710400584 -0.14108222122073177,-3.8693336224679955 -1.4108622052776814,-4.01089548950386 l-1.3168118348050117,-0.1415605294518471 z" id="path52" inkscape:connector-curvature="0"/>
    <path style="stroke-width:0.03527778" d="m147.59596997979975,17.267894773095595 v5.4736907482023245 l1.3168118348050117,-0.1415605294518471 c1.0816659120881562,-0.1415605294518471 1.2697799840569497,-0.37749563692760485 1.410875536301136,-1.9346668112339975 c0.1881140719687939,-2.2649751591496465 0.7994881386232382,-2.2177878701376916 1.975204421184063,0.1415605294518471 c0.7994881386232382,1.5571711743063925 1.2227481333088874,1.887480859806061 2.351445896145106,1.887480859806061 c1.6930399787425996,0 1.6930399787425996,0 0.4702918454337122,-2.312163785745621 c-0.7994881386232382,-1.6043571257343294 -0.8465199893713002,-1.9346654736499789 -0.2351459227168561,-2.406535688601494 c0.8935518401193623,-0.7549926114392285 0.8935518401193623,-3.7749590444440844 0.04705851279497148,-4.954635919406891 c-0.5173236961817744,-0.7078039848432537 -1.410875536301136,-0.9437390923190118 -3.997454024139643,-1.0853009593548775 l-3.3390880998075008,-0.18874781846380237 zm5.079119936227799,-1.7931049441981317 c0.1410955522441864,0.8965518033070569 -0.04705851279497148,1.0853009593548775 -1.0346340613400935,1.0853009593548775 c-0.9876022105920319,0 -1.2227481333088874,-0.2359351074757577 -1.2227481333088874,-1.2268628263907433 c0,-0.9909263813309673 0.1881140719687939,-1.1796741997947702 1.0816659120881562,-1.0381123327589035 c0.6584059174025061,0.0943799283599854 1.0816659120881562,0.519056166379452 1.175716282560826,1.1796741997947702 z" id="path54" inkscape:connector-curvature="0"/>
    <path style="stroke-width:0.03527778" d="m157.236899487097,12.454820720724573 c-0.14108222122073177,0.3303083479156496 -0.1881140719687939,2.7368467116851805 -0.14108222122073177,5.332131556334495 l0.14108222122073177,4.6715121853351596 l1.3638303545296193,0.1415605294518471 l1.3168118348050117,0.18874781846380237 l-0.1881140719687939,-3.303088829492569 l-0.1881140719687939,-3.3030901670765873 l1.2227481333088874,2.170601918709756 c2.210363674924374,4.0108941519198416 2.492528117365837,4.34120383741951 3.856371802918911,4.34120383741951 h1.3168118348050117 V17.22070748408364 V11.794202687309252 l-1.2697799840569497,0.1415605294518471 c-1.3168118348050117,0.14156186703586585 -1.3168118348050117,0.18874781846380237 -1.2227481333088874,3.1615309752087595 l0.0939837153553963,3.019966433004856 l-1.7400718294906616,-3.019966433004856 c-1.4108622052776814,-2.4065383637695312 -2.022236271932125,-3.067156397184849 -3.0568703332722187,-3.1615309752087595 c-0.7524696188986302,-0.0943799283599854 -1.363843685553074,0.0943799283599854 -1.5049259067738054,0.5190575039634707 z" id="path56" inkscape:connector-curvature="0"/>
    <path style="stroke-width:0.03527778" d="m167.34810750880453,17.267894773095595 v5.426504796774387 h1.4108622052776814 h1.410875536301136 v-5.426504796774387 v-5.426504796774387 h-1.410875536301136 h-1.4108622052776814 z" id="path58" inkscape:connector-curvature="0"/>
    <path style="stroke-width:0.03527778" d="m171.58070745566104,13.021064176115978 c0,0.9437417674870491 0.2351459227168561,1.1796768749628073 1.1757296135842805,1.1796768749628073 c1.1286844318127636,0 1.175716282560826,0.0943799283599854 1.175716282560826,3.4918366479563714 c0,4.246829259395599 0.2351459227168561,5.001821870834827 1.6930399787425996,5.001821870834827 c1.0346340613400935,0 1.0816659120881562,-0.14156186703586585 1.2227481333088874,-4.152456018955708 c0.14108222122073177,-4.105267392359734 0.14108222122073177,-4.105267392359734 1.4578940560257434,-4.2468279218115805 c0.9876155416154869,-0.14156186703586585 1.2697799840569497,-0.42468292593956014 1.2697799840569497,-1.3212387419986724 c0,-1.1324869107828142 -0.0939837153553963,-1.1324869107828142 -3.997454024139643,-1.1324869107828142 c-3.9504221733915807,0 -3.997454024139643,0 -3.997454024139643,1.1796741997947702 z" id="path60" inkscape:connector-curvature="0"/>
    <path style="stroke-width:0.03527778" d="m180.70431326677652,12.549193961164463 c-0.1881140719687939,0.3774969745116234 -0.1881140719687939,2.264977834317685 -0.09411702558994296,4.199644645551682 c0.09411702558994296,2.595283507065296 0.3762414749610424,3.7749590444440844 1.0346340613400935,4.482763029287338 c1.881167381734848,2.0762286782698633 6.207817699064017,1.6515457523303032 7.289483611152172,-0.7078039848432537 c0.2821777734649181,-0.6606180334153179 0.5173236961817744,-2.878407241137028 0.5173236961817744,-4.907447292810917 v-3.774960382028103 h-1.410875536301136 h-1.4108622052776814 v3.774960382028103 c0,3.019967770588875 -0.14108222122073177,3.8221463334560393 -0.7994881386232382,4.199641970383644 c-0.5173236961817744,0.283122396487713 -1.1286977628362185,0.283122396487713 -1.6460214590179922,0 c-0.7054244371271133,-0.37749563692760485 -0.8465199893713002,-1.0853009593548775 -0.8465199893713002,-4.199641970383644 c0,-3.727773093016148 0,-3.774960382028103 -1.175716282560826,-3.774960382028103 c-0.6584059174025061,0 -1.3168118348050117,0.3303083479156496 -1.4578940560257434,0.7078039848432537 z" id="path62" inkscape:connector-curvature="0"/>
    <path style="stroke-width:0.03527778" d="m190.86255313923218,17.267894773095595 v5.426504796774387 h1.4108622052776814 c1.3168118348050117,0 1.410875536301136,-0.0943799283599854 1.410875536301136,-1.887480859806061 c0,-1.0381136703429221 0.1881140719687939,-1.8874795222220422 0.47027851441025753,-1.8874795222220422 c0.2351459227168561,0 0.8935518401193623,0.8493658518791203 1.410875536301136,1.8874795222220422 c0.7994881386232382,1.5571711743063925 1.2227481333088874,1.887480859806061 2.351445896145106,1.887480859806061 c1.5989762772464753,0 1.6930399787425996,-0.3774969745116234 0.6583925863790516,-2.453724315197468 c-0.7054244371271133,-1.3684220182585718 -0.7054244371271133,-1.6043571257343294 0.04705851279497148,-2.831218614541054 c0.940583690867424,-1.6515457523303032 0.5643555469298365,-3.8693336224679955 -0.8465199893713002,-4.860262678966999 c-0.6584059174025061,-0.42468292593956014 -2.1162999734282493,-0.7078039848432537 -3.9504221733915807,-0.7078039848432537 h-2.9628199627995495 zm5.032088085479737,-2.5480975556373595 c0.7994881386232382,0.802178562867165 0.1881140719687939,1.8402935707941055 -1.0816659120881562,1.8402935707941055 c-0.8935518401193623,0 -1.1286844318127636,-0.2359351074757577 -1.1286844318127636,-1.1796755373787888 c0,-1.2740474402346615 1.2227481333088874,-1.6515444147462846 2.2103503439009193,-0.6606180334153179 z" id="path64" inkscape:connector-curvature="0"/>
    <path style="stroke-width:0.03527778" d="m200.73861523822282,17.267894773095595 v5.426504796774387 h3.5271755097293855 c3.4330984772098065,0 3.527162178705931,-0.047189964179992674 3.527162178705931,-1.1796755373787888 c0,-1.0853009593548775 -0.1881140719687939,-1.1796741997947702 -2.1162999734282493,-1.1796741997947702 c-1.7871036802387237,0 -2.1162999734282493,-0.14156186703586585 -2.1162999734282493,-0.9437404299030303 c0,-0.802178562867165 0.3291962931895258,-0.9437390923190118 1.9281859014594556,-0.9437390923190118 c1.6930399787425996,0 1.8811540507113935,-0.0943799283599854 1.7400718294906616,-1.0853009593548775 c-0.09411702558994296,-0.8493658518791203 -0.4702918454337122,-1.0853009593548775 -1.881167381734848,-1.1796755373787888 c-1.4108622052776814,-0.1415605294518471 -1.7870903492152692,-0.3303083479156496 -1.7870903492152692,-1.0852996217708588 c0,-0.7549926114392285 0.3291962931895258,-0.896553140891076 2.1162999734282493,-0.896553140891076 c1.9281859014594556,0 2.1162999734282493,-0.09436655251979828 2.1162999734282493,-1.1796768749628073 c0,-1.1324869107828142 -0.09411702558994296,-1.1796741997947702 -3.527162178705931,-1.1796741997947702 h-3.5271755097293855 z" id="path66" inkscape:connector-curvature="0"/>
    <path style="stroke-width:0.03527778" inkscape:connector-curvature="0" d="m4.116689433070398,24.566075536911 c-0.4702918454337122,0.283122396487713 -0.8465199893713002,0.802178562867165 -0.8465199893713002,1.2268614888067246 c0,0.9909277189149861 2.0692681226801874,0.4718702149515154 3.4330984772098065,-0.8965518033070569 c1.0346340613400935,-0.9437404299030303 1.0346340613400935,-0.9437404299030303 0.04705851279497148,-0.4718702149515154 c-0.5643422159063818,0.3303083479156496 -1.175716282560826,0.3303083479156496 -1.4108622052776814,0.09436655251979828 c-0.2351459227168561,-0.23593376989173895 -0.7524696188986302,-0.23593376989173895 -1.2227481333088874,0.047189964179992674 z" id="path68"/>
    <path style="stroke-width:0.03527778" inkscape:connector-curvature="0" d="m30.405827623305296,26.45355505913304 c0.6113740666544437,1.2268614888067246 2.492541448389292,1.9818541002459527 2.492541448389292,0.9909277189149861 c0,-0.5190575039634707 -1.410875536301136,-1.745918992770195 -2.3984777468931675,-2.1234146296977996 c-0.705437768150568,-0.2359351074757577 -0.705437768150568,-0.14156186703586585 -0.09411702558994296,1.1324869107828142 z" id="path70"/>
    <path style="stroke-width:0.03527778" inkscape:connector-curvature="0" d="m6.656249401184299,28.388221870367037 c-0.8465199893713002,0.8493658518791203 -0.705437768150568,1.9346668112339975 0.1881140719687939,1.6043571257343294 c0.4232599946856501,-0.1415605294518471 0.7994881386232382,-0.28312105890369427 0.8935385090959078,-0.28312105890369427 c0.1410955522441864,0 0.4232599946856501,-0.42468292593956014 0.705437768150568,-0.9437404299030303 c0.4232599946856501,-0.802178562867165 0.3762281439375878,-0.9437390923190118 -0.3762281439375878,-0.9437390923190118 c-0.4702918454337122,0 -1.0816659120881562,0.2359351074757577 -1.4108622052776814,0.5662434553914071 z" id="path72"/>
    <path style="stroke-width:0.03527778" inkscape:connector-curvature="0" d="m28.101413577908257,29.001652614770396 c0.1881140719687939,1.1796755373787888 1.59898960826993,2.359349737173558 2.1162999734282493,1.8402922332100868 c0.3762281439375878,-0.42468292593956014 -0.1881140719687939,-1.7459176551861764 -0.9876022105920319,-2.4537229776134493 c-1.0816659120881562,-0.8493658518791203 -1.4108622052776814,-0.7078053224272721 -1.1286977628362185,0.6134307444033623 z" id="path74"/>
    <path style="stroke-width:0.03527778" inkscape:connector-curvature="0" d="m10.230443430638292,30.03976628511332 c-0.7524696188986302,0.37749563692760485 -1.3168118348050117,1.0853009593548775 -1.3168118348050117,1.604358463318348 c0,1.1324869107828142 0.5643422159063818,1.1324869107828142 1.5049259067738054,0.047189964179992674 c0.6113740666544437,-0.6606166958312992 1.5049259067738054,-2.548096218053341 1.175716282560826,-2.406535688601494 c-0.04705851279497148,0.047189964179992674 -0.6584059174025061,0.37749563692760485 -1.3638303545296193,0.7549912738552097 z" id="path76"/>
    <path style="stroke-width:0.03527778" inkscape:connector-curvature="0" d="m24.668301769674997,31.172254533480157 c-0.1881140719687939,0.283122396487713 0.09411702558994296,0.9909263813309673 0.6584059174025061,1.5099838852944374 l0.9876155416154869,0.9909263813309673 v-0.9909263813309673 c0,-1.2268614888067246 -1.1757296135842805,-2.3121624481616023 -1.6460214590179922,-1.5099838852944374 z" id="path78"/>
    <path style="stroke-width:0.03527778" inkscape:connector-curvature="0" d="m21.705481806875444,32.06880767437123 c-0.4232599946856501,0.7078039848432537 -0.3762281439375878,1.0853009593548775 0.3762414749610424,1.981852762661934 l0.8935385090959078,1.0853009593548775 l0.04705851279497148,-1.415609307270527 c0,-2.029041389257908 -0.6113740666544437,-2.7840326631131176 -1.316798503781557,-1.6515444147462846 z" id="path80"/>
    <path style="stroke-width:0.03527778" inkscape:connector-curvature="0" d="m13.992751532061076,32.11599362579916 c-0.8935518401193623,0.5190575039634707 -1.1286977628362185,2.0762286782698633 -0.4232599946856501,2.5480975556373595 c0.5643422159063818,0.3303096854996683 1.5989762772464753,-1.4627965962824823 1.3638303545296193,-2.3593483995895386 c-0.0939837153553963,-0.4718702149515154 -0.3762281439375878,-0.5190575039634707 -0.9405703598439693,-0.1887491560478211 z" id="path82"/>
  </g></g></svg>